<svg width="22" height="42" viewBox="0 0 22 42" version="1.1" xmlns="http://www.w3.org/2000/svg" xmlns:xlink="http://www.w3.org/1999/xlink">
<title>Group</title>
<desc>Created using Figma</desc>
<g id="Canvas" transform="translate(2959 -928)">
<g id="Group">
<g id="Mission Statement Copy 11">
<use xlink:href="#path0_fill" transform="translate(-2959 928)"/>
</g>
<g id="&#226;&#128;&#157;">
<use xlink:href="#path1_fill" transform="translate(-2958.76 948.667)"/>
</g>
</g>
</g>
<defs>
<path id="path0_fill" d="M 20.835 6.18408C 20.4753 6.3501 19.908 6.7098 19.1333 7.26318C 17.6945 8.67432 16.9751 9.98861 16.9751 11.2061C 19.244 11.8148 20.3784 13.3643 20.3784 15.8545C 20.3784 17.1826 19.9219 18.2894 19.0088 19.1748C 18.0957 20.0326 17.0581 20.4614 15.896 20.4614C 14.5679 20.4614 13.4749 19.9634 12.6172 18.9673C 11.6764 17.9435 11.2061 16.5877 11.2061 14.8999C 11.2061 9.33838 14.0145 4.37174 19.6313 0C 19.6313 2.40723 19.6452 3.69385 19.6729 3.85986C 19.7835 4.96663 20.1709 5.74137 20.835 6.18408ZM 9.62891 6.18408C 9.26921 6.3501 8.70199 6.7098 7.92725 7.26318C 6.48844 8.67432 5.76904 9.98861 5.76904 11.2061C 8.03792 11.8148 9.17236 13.3643 9.17236 15.8545C 9.17236 17.1826 8.71582 18.2894 7.80273 19.1748C 6.88965 20.0326 5.85205 20.4614 4.68994 20.4614C 3.36182 20.4614 2.26888 19.9634 1.41113 18.9673C 0.470378 17.9435 0 16.5877 0 14.8999C 0 9.33838 2.80843 4.37174 8.42529 0C 8.42529 2.40723 8.43913 3.69385 8.4668 3.85986C 8.57747 4.96663 8.96484 5.74137 9.62891 6.18408Z"/>
<path id="path1_fill" d="M 20.835 5.56152C 20.835 11.123 18.0265 16.0897 12.4097 20.4614C 12.4097 18.0542 12.3958 16.7676 12.3682 16.6016C 12.2575 15.4948 11.8701 14.7201 11.2061 14.2773C 11.5658 14.1113 12.133 13.7516 12.9077 13.1982C 14.3465 11.7871 15.0659 10.4728 15.0659 9.25537C 12.797 8.64665 11.6626 7.09717 11.6626 4.60693C 11.6626 3.27881 12.133 2.1582 13.0737 1.24512C 13.9591 0.415039 14.9829 0 16.145 0C 17.4731 0 18.5661 0.484212 19.4238 1.45264C 20.3646 2.50407 20.835 3.8737 20.835 5.56152ZM 9.62891 5.56152C 9.62891 11.123 6.82048 16.0897 1.20361 20.4614C 1.20361 18.0542 1.18978 16.7676 1.16211 16.6016C 1.05143 15.4948 0.664062 14.7201 0 14.2773C 0.359701 14.1113 0.926921 13.7516 1.70166 13.1982C 3.14046 11.7871 3.85986 10.4728 3.85986 9.25537C 1.59098 8.64665 0.456543 7.09717 0.456543 4.60693C 0.456543 3.27881 0.926921 2.1582 1.86768 1.24512C 2.75309 0.415039 3.77686 0 4.93896 0C 6.26709 0 7.36003 0.484212 8.21777 1.45264C 9.15853 2.50407 9.62891 3.8737 9.62891 5.56152Z"/>
</defs>
</svg>
