<svg width="34" height="91" viewBox="0 0 34 91" version="1.1" xmlns="http://www.w3.org/2000/svg" xmlns:xlink="http://www.w3.org/1999/xlink">
<title>social-icons-sprite</title>
<desc>Created using Figma</desc>
<g id="Canvas" transform="translate(3190 -878)">
<g id="social-icons-sprite">
<g id="Canvas">
<g id="Group">
<g id="facebook app logo">
<g id="Group">
<g id="Vector">
<g id="Vector">
<use xlink:href="#path0_fill" transform="translate(-3190 909)" fill="#FFFFFF"/>
</g>
</g>
</g>
</g>
<g id="instagram logo">
<g id="Group">
<g id="Vector">
<g id="Vector">
<use xlink:href="#path1_fill" transform="translate(-3190 940)" fill="#FFFFFF"/>
</g>
</g>
<g id="Vector">
<g id="Vector">
<use xlink:href="#path2_fill" transform="translate(-3182.97 947.027)" fill="#FFFFFF"/>
</g>
</g>
<g id="Vector">
<g id="Vector">
<use xlink:href="#path3_fill" transform="translate(-3169.6 944.847)" fill="#FFFFFF"/>
</g>
</g>
</g>
<g id="Vector">
<g id="Vector">
<use xlink:href="#path4_fill" transform="translate(-3190 878)" fill="#FFFFFF"/>
</g>
</g>
</g>
</g>
</g>
</g>
</g>
<defs>
<path id="path0_fill" d="M 27.3985 5.28857e-19L 1.60061 5.28857e-19C 0.717217 5.28857e-19 0 0.715783 0 1.60061L 0 27.3985C 0 28.2833 0.717217 29 1.60061 29L 15.4894 29L 15.4894 17.7695L 11.7104 17.7695L 11.7104 13.3922L 15.4894 13.3922L 15.4894 10.1642C 15.4894 6.41913 17.7762 4.37875 21.1178 4.37875C 22.7199 4.37875 24.0936 4.49861 24.4943 4.55064L 24.4943 8.46526L 22.1765 8.46621C 20.3594 8.46621 20.0091 9.33002 20.0091 10.5969L 20.0091 13.3907L 24.3439 13.3907L 23.7771 17.7676L 20.0085 17.7676L 20.0085 28.9986L 27.3979 28.9986C 28.2823 28.9986 29 28.2808 29 27.3985L 29 1.59965C 28.9995 0.715783 28.2828 5.28857e-19 27.3985 5.28857e-19Z"/>
<path id="path1_fill" d="M 20.9969 0L 8.00279 0C 3.59005 0 0 3.59022 0 8.00295L 0 20.9971C 0 25.41 3.59005 29 8.00279 29L 20.9969 29C 25.41 29 29 25.4098 29 20.9971L 29 8.00295C 29.0002 3.59022 25.41 0 20.9969 0ZM 26.4272 20.9971C 26.4272 23.9912 23.9912 26.427 20.9971 26.427L 8.00279 26.427C 5.00881 26.4272 2.57302 23.9912 2.57302 20.9971L 2.57302 8.00295C 2.57302 5.00899 5.00881 2.57302 8.00279 2.57302L 20.9969 2.57302C 23.991 2.57302 26.427 5.00899 26.427 8.00295L 26.427 20.9971L 26.4272 20.9971Z"/>
<path id="path2_fill" d="M 7.47257 2.35387e-15C 3.35213 2.35387e-15 1.15308e-15 3.35213 1.15308e-15 7.47256C 1.15308e-15 11.5928 3.35213 14.9448 7.47257 14.9448C 11.593 14.9448 14.9451 11.5928 14.9451 7.47256C 14.9451 3.35213 11.593 2.35387e-15 7.47257 2.35387e-15ZM 7.47257 12.3716C 4.77106 12.3716 2.57303 10.1739 2.57303 7.47239C 2.57303 4.77072 4.7709 2.57284 7.47257 2.57284C 10.1742 2.57284 12.3721 4.77072 12.3721 7.47239C 12.3721 10.1739 10.1741 12.3716 7.47257 12.3716Z"/>
<path id="path3_fill" d="M 1.88689 -5.84352e-16C 1.39115 -5.84352e-16 0.904161 0.200696 0.554058 0.552341C 0.202239 0.902274 -1.26582e-15 1.38943 -1.26582e-15 1.88688C -1.26582e-15 2.38279 0.202411 2.86977 0.554058 3.22143C 0.903988 3.57135 1.39115 3.77377 1.88689 3.77377C 2.38433 3.77377 2.86977 3.57135 3.22143 3.22143C 3.57307 2.86977 3.77377 2.38262 3.77377 1.88688C 3.77377 1.38943 3.57307 0.902274 3.22143 0.552341C 2.87149 0.200696 2.38433 -5.84352e-16 1.88689 -5.84352e-16Z"/>
<path id="path4_fill" d="M 33.8333 3.43115C 32.5881 4.0134 31.2518 4.40829 29.8481 4.58457C 31.2816 3.67879 32.3789 2.2421 32.8988 0.535409C 31.5542 1.37422 30.07 1.98331 28.4886 2.31349C 27.2223 0.887934 25.4209 -5.38795e-15 23.423 -5.38795e-15C 19.59 -5.38795e-15 16.4821 3.27948 16.4821 7.32194C 16.4821 7.89527 16.5434 8.45524 16.6618 8.99071C 10.8944 8.68503 5.78014 5.76921 2.35728 1.33852C 1.75895 2.41833 1.41857 3.67651 1.41857 5.01959C 1.41857 7.56066 2.64481 9.80274 4.50532 11.1145C 3.36786 11.0744 2.29807 10.7442 1.36152 10.1953L 1.36152 10.2868C 1.36152 13.834 3.75479 16.7944 6.92816 17.4682C 6.34674 17.6333 5.73365 17.7248 5.0994 17.7248C 4.65121 17.7248 4.21779 17.6779 3.79282 17.5887C 4.67653 20.5001 7.23896 22.6173 10.275 22.6753C 7.90071 24.6386 4.90701 25.8053 1.6554 25.8053C 1.09516 25.8053 0.543324 25.7696 7.48099e-20 25.7049C 3.07192 27.7864 6.71891 29 10.6386 29C 23.4063 29 30.3852 17.8408 30.3852 8.16303L 30.3619 7.21489C 31.7255 6.18858 32.9052 4.89913 33.8333 3.43115Z"/>
</defs>
</svg>
