<svg width="19" height="50" viewBox="0 0 19 50" version="1.1" xmlns="http://www.w3.org/2000/svg" xmlns:xlink="http://www.w3.org/1999/xlink">
<title>Group</title>
<desc>Created using Figma</desc>
<g id="Canvas" transform="translate(-9 174)">
<g id="Group">
<g id="facebook-app-logo">
<g id="Group">
<g id="Vector">
<use xlink:href="#path0_fill" transform="translate(9 -157)" fill="#FFFFFF"/>
</g>
</g>
</g>
<g id="instagram-logo">
<g id="Group">
<g id="Vector">
<use xlink:href="#path1_fill" transform="translate(9 -140)" fill="#FFFFFF"/>
</g>
<g id="Vector">
<use xlink:href="#path2_fill" transform="translate(12.8772 -136.123)" fill="#FFFFFF"/>
</g>
<g id="Vector">
<use xlink:href="#path3_fill" transform="translate(20.2547 -137.326)" fill="#FFFFFF"/>
</g>
</g>
<g id="Vector">
<use xlink:href="#path4_fill" transform="translate(9 -174)" fill="#FFFFFF"/>
</g>
</g>
</g>
</g>
<defs>
<path id="path0_fill" d="M 15.1164 1.25133e-11L 0.883093 1.25133e-11C 0.395706 1.25133e-11 0 0.394915 0 0.883093L 0 15.1164C 0 15.6046 0.395706 16 0.883093 16L 8.54587 16L 8.54587 9.80386L 6.46091 9.80386L 6.46091 7.38879L 8.54587 7.38879L 8.54587 5.60785C 8.54587 3.54159 9.80755 2.41586 11.6512 2.41586C 12.5351 2.41586 13.293 2.48199 13.5141 2.5107L 13.5141 4.67049L 12.2353 4.67101C 11.2328 4.67101 11.0395 5.1476 11.0395 5.84654L 11.0395 7.388L 13.4311 7.388L 13.1184 9.80281L 11.0392 9.80281L 11.0392 15.9992L 15.1161 15.9992C 15.604 15.9992 16 15.6032 16 15.1164L 16 0.882566C 15.9997 0.394915 15.6043 1.25133e-11 15.1164 1.25133e-11Z"/>
<path id="path1_fill" d="M 11.5845 0L 4.41533 0C 1.98072 0 0 1.98081 0 4.41542L 0 11.5846C 0 14.0193 1.98072 16 4.41533 16L 11.5845 16C 14.0193 16 16 14.0192 16 11.5846L 16 4.41542C 16.0001 1.98081 14.0193 0 11.5845 0ZM 14.5805 11.5846C 14.5805 13.2365 13.2365 14.5804 11.5846 14.5804L 4.41533 14.5804C 2.76348 14.5805 1.4196 13.2365 1.4196 11.5846L 1.4196 4.41542C 1.4196 2.76358 2.76348 1.4196 4.41533 1.4196L 11.5845 1.4196C 13.2364 1.4196 14.5804 2.76358 14.5804 4.41542L 14.5804 11.5846L 14.5805 11.5846Z"/>
<path id="path2_fill" d="M 4.1228 1.15527e-07C 1.84945 1.15527e-07 -1.41521e-07 1.84945 -1.41521e-07 4.12279C -1.41521e-07 6.39604 1.84945 8.2454 4.1228 8.2454C 6.39614 8.2454 8.24559 6.39604 8.24559 4.12279C 8.24559 1.84945 6.39614 1.15527e-07 4.1228 1.15527e-07ZM 4.1228 6.82571C 2.63231 6.82571 1.4196 5.61318 1.4196 4.1227C 1.4196 2.63212 2.63222 1.4195 4.1228 1.4195C 5.61337 1.4195 6.82599 2.63212 6.82599 4.1227C 6.82599 5.61318 5.61328 6.82571 4.1228 6.82571Z"/>
<path id="path3_fill" d="M 1.04104 -5.19872e-08C 0.76753 -5.19872e-08 0.498847 0.110729 0.305687 0.30474C 0.11158 0.497806 -2.25278e-07 0.766583 -2.25278e-07 1.04104C -2.25278e-07 1.31464 0.111675 1.58332 0.305687 1.77734C 0.498752 1.9704 0.76753 2.08208 1.04104 2.08208C 1.31549 2.08208 1.58332 1.9704 1.77734 1.77734C 1.97135 1.58332 2.08208 1.31455 2.08208 1.04104C 2.08208 0.766583 1.97135 0.497806 1.77734 0.30474C 1.58427 0.110729 1.31549 -5.19872e-08 1.04104 -5.19872e-08Z"/>
<path id="path4_fill" d="M 19 1.89305C 18.3007 2.21429 17.5503 2.43216 16.762 2.52942C 17.567 2.02968 18.1832 1.23702 18.4752 0.295398C 17.7201 0.758193 16.8866 1.09424 15.9985 1.27641C 15.2874 0.489895 14.2758 6.08978e-08 13.1538 6.08978e-08C 11.0013 6.08978e-08 9.25596 1.80937 9.25596 4.03969C 9.25596 4.35601 9.29039 4.66496 9.35689 4.96039C 6.11801 4.79174 3.24599 3.18301 1.32379 0.738495C 0.987784 1.33425 0.796635 2.02842 0.796635 2.76943C 0.796635 4.1714 1.48526 5.40841 2.53008 6.13213C 1.89131 6.10999 1.29054 5.92782 0.764596 5.62502L 0.764596 5.67549C 0.764596 7.63256 2.1086 9.2659 3.89069 9.63764C 3.56418 9.72873 3.21988 9.7792 2.8637 9.7792C 2.61201 9.7792 2.36861 9.75335 2.12996 9.70411C 2.62623 11.3104 4.06523 12.4785 5.77017 12.5105C 4.43685 13.5937 2.75566 14.2374 0.929635 14.2374C 0.615017 14.2374 0.305118 14.2177 1.47478e-12 14.182C 1.72512 15.3304 3.77318 16 5.97439 16C 13.1444 16 17.0636 9.84321 17.0636 4.50374L 17.0505 3.98063C 17.8163 3.41439 18.4788 2.70297 19 1.89305Z"/>
</defs>
</svg>
